<?xml version="1.0" encoding="utf-8"?>
<!-- Generator: Adobe Illustrator 22.0.1, SVG Export Plug-In . SVG Version: 6.00 Build 0)  -->
<svg version="1.1" id="Layer_1" xmlns="http://www.w3.org/2000/svg" xmlns:xlink="http://www.w3.org/1999/xlink" x="0px" y="0px"
	 viewBox="0 0 576 200" style="enable-background:new 0 0 576 200;" xml:space="preserve">
<style type="text/css">
	.st0{fill:#FFFFFF;}
</style>
<path class="st0" d="M291.9,130c1.5,2.1,1.4,4.4-0.5,6.1c-1,0.9-1.9,2.2-3.7,1.7c-1.4-0.4-2.9,0.2-4.2-0.9c-0.5-0.4-1.5-0.1-2.3-0.1
	c0.1-1.1-0.7-1.3-1.6-1.5c-1.3-0.3-2.5-0.5-3.7,0.1c-0.4,0.2-0.9,0.2-1.3,0.1c-2.8-0.7-5.7-1.5-8.5-2.3c-0.5-0.1-0.9-0.2-1.3-0.5
	c-1.2-0.7-2.9-0.5-3.5-2.2c-2.3-0.8-3.4-2.8-5.1-4.3c-1.8-1.6-3.4-3.5-4.4-5.8c-0.3-0.7-0.7-1.5-1.2-2.1c-1.5-1.9-1.9-4.1-1.9-6.5
	c0-1.7-0.5-3.4-0.8-5.1c-0.1-0.5,0-1-0.1-1.4c-0.1-0.5-0.3-1-1-0.6c-0.3,0.1-0.8,0-1.2,0c-1-0.1-1.9-0.2-3-0.4
	c-0.1,0.8-0.1,1.5-0.2,2.2c-0.1,0.9-0.2,1.7-1.3,2.1c-0.3,0.1-0.6,0.6-0.6,0.9c-0.4,4.6-3,8.2-5.2,12c-0.3,0.5-1,0.9-1.5,1.3
	c-0.9,0.8-1.9,1.6-2.8,2.3c-0.4,0.3-0.9,0.5-1.4,0.8c-0.3,0.2-0.5,0.6-0.7,0.8c-0.3,0.4-0.6,0.9-1,1.1c-1.1,0.5-2,1.1-1.9,2.5
	c-2-0.1-3.2,0.9-4,2.4c-0.9,1.5-2.4,1.6-3.8,1.9c-2.4,0.6-4.8,1.1-7.2,1.6c-0.3,0.1-0.8,0.2-1,0.1c-2.4-1-4.8-0.3-7.1,0
	c-1.4,0.2-2.7,0.6-4.1,1c-1.9,0.6-3.6-1.1-3.7-2.6c-0.2-1.7,0.1-3.3,1-4.7c0.6-1,1.4-1.7,2.6-1.9c4.6-0.7,9.2-1.4,13.7-2.1
	c3.2-0.5,6.2-1.5,9.1-2.8c1.2-0.6,2.1-1.7,3.1-2.5c0.6-0.4,1.3-0.8,1.9-1.1c0.2-0.1,0.4-0.1,0.5-0.2c1-1,1.9-1.9,2.9-2.9
	c0.1-0.1,0.3-0.3,0.4-0.5c0.8-2.7,1.8-5.2,3.7-7.4c0.3-0.4,0.2-1.6-0.1-2.1c-1.4-2.1-1.2-4.2-0.9-6.5c0.2-1,0.8-2-0.2-3
	c-0.2-0.2-0.1-0.7-0.1-1.1c-0.1-1.8-0.6-3.4-1.1-5.2c-1-3.3-3.4-5.7-5-8.6c-0.4-0.7-0.6-1.4-1-2.1c-0.4-0.7-0.7-1.3-1.7-1.3
	c-0.5,0-1-0.6-1.6-0.9c-0.8-0.5-1.6-1-2.4-1.5c-0.4-0.2-0.9-0.2-1.2-0.5c-1.4-1.2-2.9-2-4.6-2.4c-0.2-0.1-0.5-0.2-0.6-0.3
	c-1.4-1.5-3.2-1.6-5-1.6c-2.7-0.1-5.3-0.3-7.8-1.7c-0.2,1.5-1.3,1.3-2.3,1.1c-1.7-0.3-3.2-0.8-4.3-2.3c-2.7-3.9-0.3-7,2.8-9
	c1.1-0.7,2.4-1,3.7-1.5c0.1,0.3,0.2,0.7,0.2,1c9.5,1.8,18.5,4.7,27,9.2c0.7,0.4,1.1,1.2,1.7,1.7c1,0.8,2.2,1.6,3.5,2.5
	c-0.7,0.1-1.2,0.2-1.7,0.2c0.1,1.5,1.4,0.9,2.1,1.4c-0.3,1.1,0.7,1.4,1.4,1.7c1.3,0.5,1.8,1.6,1.9,2.9c0.1,0.8,0.3,1.7,0.4,2.6
	c2-0.4,2.6,0.7,2.9,2.7c0.1,0.9,0.3,1.8,0.6,2.6c0.4,0.9,0.3,2,1.5,2.5c0.3,0.1,0.2,1.1,0.3,1.7c0,0.5,0,1,0.1,1.6
	c0.1,1.7,1.2,2.3,2.8,1.6c0.5-0.2,1.1,0.1,1.6,0.1c0.8,0.1,1.3-0.3,0.9-1c-1.5-2.6-0.4-4.8,0.9-6.9c-0.7-1.3-0.5-1.8,0.6-2.9
	c0.8-0.9,1.3-2,1.6-3.1c0.4-1.2,1-2.1,2.1-3c1-0.8,1.6-2,2.5-2.9c1.1-1.1,2.3-2.6,3.7-2.8c2-0.3,3-1.8,4.5-2.6
	c1.5-0.9,2.6-2.3,3.9-3.5c0.1-0.1,0.3-0.2,0.5-0.4c0,0.7,0,1.2,0,1.9c1.8-0.7,3.5-1.5,5.3-2.2c0.7-0.3,1.3-0.5,2-0.8
	c0.5-0.2,0.8-0.6,1.1-1.2c0.2-0.5,1.3-0.6,2-0.7c1.7-0.4,3.4-0.6,5.1-1c0.2-0.1,0.5-0.6,0.6-1c0.1-0.6,0.5-0.8,1.1-1
	c3.1-0.7,5.7-0.2,7.8,2.5c2.8,3.8,1.3,8.1-3.2,9.3c-4.6,1.2-9.3,2.4-13.8,3.8c-3.6,1.1-7,2.8-9.9,5.3c-0.5,0.4-1.1,0.8-1.7,1.2
	c-1,0.5-2,0.9-2.5,2c-0.2,0.5-0.6,1.3-1.6,0.8c-0.1,0-0.5,0.4-0.6,0.7c-0.7,1.8-1.3,3.7-2,5.6c-0.2,0.4-0.3,0.9-0.6,1.2
	c-1.2,0.9-1,2.1-1,3.2c-0.1,3.6-0.2,7.1-0.2,10.7c0,1.7,0.2,3.3,1.4,4.6c0.3,0.3,0.5,0.8,0.7,1.3c0.7,2,1.7,3.8,3.3,5.3
	c0.5,0.5,1.1,1.2,1.3,1.9c0.3,1,0.9,1.5,1.8,1.9c2,1.1,3.8,2.6,5.9,3.4c2.3,0.9,4.7,1.3,7.1,1.9c0.3,0.1,0.8,0.2,0.9,0.4
	c0.5,1.5,2.1,2,2.9,1.8c2.3-0.7,4.2,1.2,6.5,0.4c0.6-0.2,1.6,0.6,2.4,0.9C290.6,129.4,291.3,129.7,291.9,130z"/>
<path class="st0" d="M310.4,135.2c0.2-0.3,0.4-0.7,0.6-1.2c1.4-3.1,2.7-6.2,4-9.3c0.2-0.5,0.3-1,0.5-1.5c0.1-0.3,0.1-0.8,0.4-1
	c1.7-1.3,1.8-3.3,2.3-5.2c0-0.1,0.1-0.1,0.1-0.2c2.7,0.1,5.3,0.2,8.3,0.4c-0.4,1.5-0.8,3-1.2,4.5c-0.1,0.5-0.4,1.1-0.5,1.6
	c-0.3,1.4-0.4,2.8-1.6,3.8c-0.2,0.2-0.2,0.5-0.3,0.8c-1.4,3-2.8,5.9-4.2,8.8c-1.1,2.3-2.1,4.6-3.2,6.8c-0.2,0.3-0.7,0.5-1,0.7
	c-0.4,0.3-0.8,0.5-1,0.8c-1.4,2.1-2.8,4.2-4.2,6.2c-1,1.3-2.2,2.4-3.3,3.7c0.3,0.3,0.6,0.6,1.1,1.1c-1.8,1.9-3.6,3.8-5.5,5.7
	c-1.8,1.9-3.6,3.7-5.5,5.5c-0.9,0.9-1.9,1.6-2.9,2.4c-1.7,1.3-3.4,2.6-5.1,3.8c-1,0.7-2,1.3-3,2c-0.4,0.3-0.7,0.9-1.1,1.1
	c-2.4,1.3-4.7,2.8-7.2,3.7c-4.8,1.7-9.9,2.9-14.7,4.7c-5,1.8-10.2,2.4-15.5,2.8c-1.1,0.1-2.3-0.4-3.5-0.7c-0.2,0-0.4-0.1-0.7-0.1
	c-4.2,0-8.4,0-12.6,0c-2.5,0-4.9-0.3-7.3-1.3c-0.3-0.1-0.6-0.3-0.9-0.2c-2.6,0.3-4.6-1.2-6.8-2c-0.5-0.2-1.1,0-1.6,0
	c-0.3,0-0.6,0-0.8-0.1c-1.2-0.6-2.4-1.2-3.6-1.9c-1.5-0.9-3-1.7-4.8-2c-1.7-0.3-3.3-1.4-4.9-2.3c-1.5-0.8-3.3-1.6-4.2-2.9
	c-1.1-1.6-2.8-2.4-4-3.7c-1.3-1.5-2.9-2.9-4.3-4.2c-0.6-0.6-1.3-1.1-2.1-1.7c-0.3,0.2-0.6,0.5-1,0.8c-2.7-2-5.7-4-7.3-6.9
	c-1.4-2.6-3.2-5-4.6-7.6c-2-3.8-3.9-7.8-6.4-11.2c-2.8-3.7-4.1-7.9-5.6-12.2c-0.3-0.9-0.9-1.9,0-2.9c0.2-0.2-0.1-0.7-0.2-1.1
	c-0.8-2.9-2-5.8-2.5-8.8c-0.5-3-0.5-6.1-0.6-9.2c0-0.9,0.4-1.9,0.6-2.8c0-0.1,0-0.3,0-0.6c2.6,0,5.3,0,8.2,0
	c0.4,2.3,0.8,4.7,1.1,7.1c0.3,2.5,0.3,5.1,0.5,7.6c0,0.4,0.2,0.9,0.2,1.3c0.4,2.5,0.8,5,1.2,7.5c0.1,0.7,0.3,1.4,0.6,2
	c1.5,3,3.1,5.9,4.7,8.9c2.8,5.5,6.1,10.8,10.4,15.3c5.3,5.6,11.1,10.6,17.9,14.3c4.6,2.5,9.1,5.1,13.8,7.2c3.2,1.4,6.8,2.1,10.2,3.1
	c1,0.3,2.1,0.7,3.1,0.7c7.4,0.5,14.8,1.7,22.2,0.5c4.3-0.7,8.6-1.3,12.7-2.9c2.2-0.9,4.6-1.1,6.9-1.9c1.6-0.5,3-1.4,4.5-2.1
	c1.2-0.6,2.4-1.2,3.7-1.7c2-0.9,3.6-2.3,5.2-3.6c2.5-2.1,5.3-3.8,7.8-5.7c8-6,13.7-13.8,18.1-22.6
	C310.5,136.5,310.4,135.9,310.4,135.2z"/>
<path class="st0" d="M164.9,61.7c1.9-0.2,1.9-2,2.5-3.4c0.1-0.1,0.1-0.4,0-0.5c-1.1-0.9-0.3-1.7,0.1-2.4c1.2-1.9,2.5-3.7,3.8-5.5
	c1.3-1.8,2.6-3.6,4-5.4c1.4-1.8,3.2-2.8,5.2-3.9c1.3-0.7,2.3-1.9,3.5-2.9c-0.2-0.4-0.4-0.7-0.6-1c1.6-2,3.4-3.8,5.8-4.7
	c0.8-0.3,1.6-0.9,2.3-1.5c3.1-2.9,6.8-4.8,10.6-6.7c1.5-0.8,2.9-1.7,4.3-2.5c0.6-0.3,1.2-0.7,1.8-0.9c2-0.7,4-1.4,6-2
	c0.9-0.2,1.8-0.2,2.8-0.2c0.3,0,0.6-0.1,0.8-0.2c1-0.4,2.1-0.8,3.1-1.1c1-0.4,2-0.9,3.1-1.1c3.5-0.5,7-0.9,10.5-1.2
	c2.5-0.2,4.8-1.2,7.4-0.8c0.5,0.1,1,0.3,1.4,0.6c2.4-0.2,4.7-0.1,7.1,0.5c0,0,0.1,0,0.1,0c2.8,2.3,6.4,1.9,9.6,2.9
	c1.3,0.4,2.8,0.1,4.2,0.4c1.6,0.4,3.2,1,4.8,1.6c3.9,1.5,7.8,2.9,11.6,4.6c1.7,0.7,3.4,1.8,4.9,2.9c2.2,1.5,4.3,3.2,6.4,4.8
	c3.1,2.5,6.2,5.1,9.3,7.6c0.2,0.2,0.4,0.4,0.6,0.6c2.6,3.2,5.2,6.2,7.7,9.5c1.8,2.4,3.5,5,5,7.6c0.5,1,1.5,1,2.1,1.6
	c0.2,0.3,0.5,0.4,0.7,0.7c3.3,6.7,6.1,13.7,8,21c0,0.1,0,0.2,0,0.4c-2.9,0.3-5.8,0.5-8.8,0.8c-0.2-1-0.4-2.2-0.8-3.4
	c-1-3.3-2-6.6-3.1-9.9c-0.4-1.2-0.9-2.4-1.5-3.5c-0.6-1.1-1.4-2.2-2.1-3.3c-1.9-2.8-4-5.5-5.6-8.5c-1.3-2.4-3.2-4-5-5.8
	c-1.7-1.7-3-3.6-4.9-5.1c-8.8-6.9-18-13-28.8-16.4c-1.4-0.5-3-0.6-4.4-1c-4.8-1.1-9.6-2.1-14.4-2.3c-4.3-0.2-8.6,0.5-12.9,0.8
	c-1.3,0.1-2.6,0.1-3.9,0.2c-1.9,0.1-3.8,0.2-5.7,0.4c-1.3,0.2-2.6,0.5-3.8,0.9c-0.3,0.1-0.4,0.6-0.6,0.9c-1.5,0.3-3,0.5-4.4,0.9
	c-0.5,0.1-0.8,0.8-1.2,1.1c-2,1.4-4.1,2.8-6.1,4.2c-1.8,1.3-3.6,2.6-5.8,3.1c-1.4,0.4-2.8,1.2-3.7,2.3c-0.6,0.8-1.3,1.5-2.1,2
	c-0.4,0.2-0.8,0.5-1.2,0.5c-1.5-0.1-2.4,0.9-3.4,1.7c-1,0.8-2.4,1.3-2.9,2.3c-2.1,4.4-5.7,7.5-8.5,11.2c-4.1,5.5-7.9,11.2-9.8,17.9
	c-0.4,1.4-0.8,3-0.7,4.5c0.1,1.1,0.4,2.3,0,3.4c-0.1,0.3-0.5,0.6-0.7,0.7c-3,0-6,0-9.3,0C161.3,75.1,163.7,68.7,164.9,61.7z"/>
<path class="st0" d="M529.1,143.3c0.4-0.3,0.9-0.5,1.3-0.8c2.9-2,5.6-4.1,8.6-5.9c1.5-0.9,3.3-1.3,5.1-1.6c1.3-0.2,2.2,0.4,2.1,1.1
	c-0.1,0.8-1.8,2.2-2.7,1.8c-2.6-1.1-4.5,0.2-6.4,1.5c-4.1,2.7-7.6,6.1-10.7,9.9c-0.8,0.9-1.7,1.2-2.8,0.9c-1.1-0.2-1.3-0.8-0.8-1.8
	c0.5-1,1-2,1.5-2.9c-0.1-0.1-0.2-0.2-0.2-0.2c-0.3,0.1-0.6,0.2-0.9,0.4c-4.4,2.3-9.1,3.9-14,4.6c-2.2,0.3-4.4,0.5-6.7-0.2
	c-3-0.9-4.2-3.2-2.5-5.9c1.1-1.8,2.7-3.3,4.1-5c0.2-0.3,0.6-0.5,1.1-1c-1.2-0.1-2.1-0.3-3-0.3c-3.6,0.1-7.1,0.2-10.7,0.5
	c-0.6,0-1.3,0.4-1.7,0.9c-1.5,2-2.8,4.2-4.2,6.3c-0.3,0.4-0.5,0.9-0.6,1.3c-0.2,0.8,0.2,1.3,1,1.3c1-0.1,2.1-0.3,3-0.6
	c1.8-0.6,3.6-1.4,5.5-2c0.1,0.1,0.3,0.3,0.4,0.4c-0.3,0.1-0.6,0.2-0.8,0.3c-2.9,1.8-6.1,3.3-9.4,4c-1,0.2-2.3-0.1-3.3-0.4
	c-0.9-0.3-1-1-0.5-1.8c1.5-2.6,3-5.2,4.5-7.8c0.2-0.4,0.5-0.9,0.8-1.5c-2.4,0-4.5-0.1-6.7,0c-2.1,0.1-4.2,0.2-6.3,0.4
	c-0.6,0.1-1.4,0.4-1.8,0.9c-1.4,1.9-2.6,3.9-3.8,5.9c-0.2,0.3-0.4,0.7-0.4,1.1c-0.2,1,0.2,1.4,1.2,1.2c2.5-0.7,5.1-1.4,7.6-2.2
	c0.4-0.1,0.7-0.2,1.1-0.3c0.1,0.1,0.1,0.2,0.2,0.3c-0.4,0.3-0.8,0.7-1.2,0.9c-3.6,1.7-7.3,3.2-11.3,3.8c-0.5,0.1-1,0-1.5-0.1
	c-1.4-0.5-1.6-1.1-0.8-2.3c0.9-1.3,1.8-2.7,2.7-4c-0.1-0.1-0.2-0.2-0.2-0.3c-0.4,0.2-0.8,0.4-1.2,0.6c-4.7,2.4-9.5,4.6-14.7,5.6
	c-1.3,0.2-2.6,0.3-3.9,0c-1.4-0.2-1.5-1-0.7-2.2c1.9-3,3.8-6,5.7-9c0.2-0.3,0.3-0.6,0.5-1.1c-0.8,0-1.4,0-2,0
	c-3.1,0.1-6.2,0.3-9.3,0.4c-1,0-1.3,0.6-1.7,1.3c-2.9,5.5-5.8,11-8.7,16.5c-2,3.8-5.3,6.5-8.6,9c-1.5,1.1-3.2,0.8-4.4-0.5
	c-0.5-0.6-0.5-1.1,0.1-1.5c1-0.5,2.1-1,3.2-1.1c1.2-0.1,2.1-0.4,3-1.3c2.3-2.3,3.9-5,5.3-7.8c2.2-4.4,4.2-8.9,6.4-13.3
	c0.5-1,0.3-1.3-0.8-1.4c-0.5,0-1,0-1.6,0c-0.2,0-0.6-0.1-0.6-0.2c-0.2-1.3-1.1-0.7-1.7-0.6c-3.2,0.3-6.4,0.7-9.7,0.8
	c-2.1,0.1-3.8,0.6-4.7,2.7c-0.7,1.5-1.6,2.9-2.3,4.5c-0.9,2.1-0.1,3.3,2.2,3.1c1.9-0.2,3.8-0.6,5.6-1c1.4-0.3,2.7-0.9,4.1-1.3
	c0.3-0.1,0.6-0.1,1,0c-0.2,0.2-0.3,0.4-0.5,0.5c-4.1,2-8.5,3.4-13,3.9c-1.2,0.1-2.4-0.3-3.6-0.8c-1.2-0.5-1.3-1.3-0.7-2.5
	c0.6-1.1,1.2-2.1,1.7-3.4c-0.3,0.2-0.7,0.3-1,0.5c-4.2,2.5-8.6,4.7-13.5,5.8c-0.8,0.2-1.6,0.3-2.4,0.4c-1.6,0.1-2.7-0.9-2.5-2.5
	c0.2-1.4,0.9-2.8,1.3-4.2c0.2-0.5,0.4-1,0.6-1.5c-0.1-0.1-0.2-0.2-0.3-0.3c-0.4,0.2-0.9,0.4-1.3,0.7c-4,2.8-8.3,5-12.8,6.7
	c-0.9,0.3-1.9,0.6-2.9,0.7c-2.3,0.2-3.5-1.4-2.6-3.5c0.7-1.7,1.7-3.3,2.8-4.8c1.6-2.2,3.4-4.2,5.2-6.2c0.8-0.9,1.9-0.8,3-0.4
	c0.8,0.3,1,0.9,0.4,1.5c-0.7,0.7-1.4,1.5-2.3,2.1c-2.3,1.7-3.6,4.2-4.8,6.6c-0.6,1.3,0.2,2.3,1.6,1.9c1.2-0.3,2.4-0.7,3.5-1.3
	c5.2-2.7,9.8-6.2,14.2-10.1c0.7-0.6,1.7-0.9,2.6-1.2c0.3-0.1,1,0.3,1.2,0.7c0.2,0.3-0.1,0.9-0.4,1.2c-2.1,2.4-3.7,5.1-4.9,8
	c-0.2,0.4-0.4,0.9-0.5,1.4c-0.3,1.4,0.4,2.2,1.8,2c1.2-0.2,2.5-0.5,3.6-1c3.8-1.8,7.7-3.8,11.4-5.8c0.8-0.4,1.3-1.4,2.2-2.4
	c-2.4-0.5-4.4,0.4-6.4-0.3c0.5-1,1.3-1.1,2-1.2c1.5-0.2,3-0.2,4.4-0.5c0.6-0.1,1.3-0.5,1.7-1.1c1.1-1.5,2-3.1,3-4.6
	c0.7-1.1,1.8-1.7,3.1-1.7c0.5,0,1.1,0.3,1.4,0.7c0.2,0.2-0.1,0.9-0.4,1.3c-0.9,1.3-2,2.5-2.9,3.8c-0.2,0.3-0.4,0.7-0.7,1.3
	c2.1,0,4,0,5.9,0c2.8,0,5.5-0.1,8.3-0.1c0.5,0,0.9,0.3,1.4,0.3c1.2,0,1.9-0.5,2.6-1.6c4.7-7.2,11.5-10.5,19.9-10.8
	c0.6,0,1.2,0.1,1.8,0.3c0.4,0.2,0.7,0.6,1,0.9c-0.4,0.3-0.7,0.8-1.1,0.8c-1,0.2-2.1,0.3-3.1,0.2c-3.6-0.6-6.7,0.8-9.5,2.8
	c-2.3,1.6-3.9,3.8-5.3,6.1c-0.4,0.6-0.4,1.2,0.6,1.1c3.3-0.1,6.7-0.2,10-0.5c0.7-0.1,1.5-0.5,2.2-0.9c1.3-0.7,2.4-0.6,3.6,0.2
	c0.6,0.4,0.8,0.9,0,1.4c-3.6,2.3-5.1,6.1-7.2,9.6c-0.7,1.2-0.3,1.7,1.1,1.5c1.3-0.2,2.7-0.5,3.9-1c4-1.7,8-3.5,11.9-5.2
	c0.9-0.4,1.5-1.2,1.6-2.3c-1.4-0.1-2.8-0.2-4.2-0.3c0-0.2-0.1-0.4-0.1-0.6c0.9-0.3,1.8-0.7,2.7-0.9c0.5-0.1,1-0.3,1.5-0.2
	c1.6,0.2,2.4-0.8,3.2-2c1.3-1.8,2.8-3.5,4.3-5.1c1-1,2.2-1.8,3.7-1.6c0.5,0,1.1,0.3,1.9,0.6c-2.9,2.3-5.5,4.4-7.3,7.7
	c1.7,0,3.1,0,4.5,0c2.4-0.1,4.9-0.2,7.3-0.2c1.6,0,2.7-0.4,3.6-1.8c0.7-1.2,1.7-2.2,2.7-3.2c0.9-1,2-1.5,3.3-1.4
	c0.5,0,1,0.3,1.5,0.4c0.1,0.2,0.2,0.4,0.4,0.6c-0.4,0.2-1,0.3-1.3,0.7c-1,1-2,2.1-2.9,3.2c-0.7,0.9-0.5,1.3,0.6,1.3
	c2.2,0,4.5-0.1,6.7,0.1c1.7,0.1,3.4,0.7,5.1,0.9c0.4,0.1,0.8-0.1,1.2-0.2c1.6-0.8,3.2-1.7,4.9-2.4c1.1-0.5,2.3-0.6,3.3,0.5
	c0.3,0.3,0.9,0.3,1.3,0.4c2.4,0.3,3.2,1.8,1.7,3.8c-0.5,0.7-1.1,1.3-1.8,1.7c-2.6,1.6-5.4,2.5-8.5,2.4c-0.6,0-1.2-0.1-1.8-0.3
	c-0.9-0.4-1.3,0.1-1.6,0.8c-0.7,1.9,0.1,3.7,2.2,3.9c2,0.2,4,0.1,5.9-0.3c4.3-0.8,8.4-2.5,12.3-4.5c0.6-0.3,1.2-1,1.4-1.6
	c0.6-1.4,1-3,1.5-4.4c0.4-1.3,2.2-2.7,3.5-2.7c0.5,0,1.1,0.3,1.4,0.7c0.2,0.3,0,1-0.3,1.4c-1.3,1.8-2.3,3.7-2.9,5.8
	C528.9,143.1,529,143.2,529.1,143.3z M505.6,142.1c0.1,0.2,0.2,0.3,0.2,0.3c2.1,0.8,6.8-0.5,8.2-2.2c1-1.2,0.6-2.6-0.9-2.8
	c-0.9-0.1-2.1,0-2.9,0.5c-1.5,0.9-2.7,2.2-4.1,3.3C505.9,141.4,505.7,141.8,505.6,142.1z"/>
<path class="st0" d="M204.2,114.2c-0.2,1.8-0.3,3.5-0.5,5.1c0,0.2-0.4,0.5-0.6,0.7c-1.2,1-2.3,2-3.5,3.1c-1.1,1-2.3,0.9-3.6,0.3
	c-0.8-0.4-1.6-0.9-2.2-1.2c-0.2-0.7-0.5-1.3-0.6-1.9c-0.1-0.5-0.2-0.9-0.1-1.4c0.2-1.9,0.3-3.9,0.7-5.8c0.3-1.5,1.1-2.8,1.6-4.3
	c0.2-0.5,0.1-1,0.1-1.5c0-0.7-0.4-1.4-0.2-2c0.4-1.1-0.1-1.6-0.9-1.9c-0.2-0.1-0.3-0.2-0.6-0.3c0.5-1.3,0.5-2.6-0.8-3.7
	c1.6-1.1,0.7-2.5,0.7-3.9c0-1,0-2,0.1-3c0-0.3,0.4-0.5,0.5-0.7c-0.1-1.1-0.1-2.1-0.2-3.4c0.6-0.8,0.3-2.8-0.7-3.7
	c-0.2-0.2-0.5-0.6-0.5-0.9c-0.3-2.1-0.5-4.1-0.7-6.2c-0.2-1.7,0.7-3.1,2.4-3.7c1.2-0.4,2.6-0.5,3.8-0.5c2.3-0.1,4.5,1.9,4.9,4.8
	c0.3,2.3,0.1,4.6,0.1,6.9c0,0.3,0,0.6,0,0.8c-0.1,2.9-0.1,5.8-0.2,8.7c0,0,0,0.1,0,0.1c0.9,1.7,0.2,3.6,0.6,5.4
	c0.1,0.4,0.1,0.9-0.1,1.1c-1.2,1.3-1.2,2.8-0.6,4.4c0.5,1.3,0.7,2.6-0.5,3.7c-0.1,0.1-0.2,0.4-0.2,0.5c0.1,1.1,0.3,2.1,0.4,3.2
	C202.7,113.8,203,114.4,204.2,114.2z"/>
<path class="st0" d="M10.1,115.7c0.1-1,0.2-2.1,0.2-3.2c0-9.1,0-18.2,0-27.2c0-0.8-0.2-1.6-0.3-2.5c0.2,0,0.5-0.1,0.7-0.1
	c5.9,0,11.8,0,17.6,0c5.2,0,9.8,1.5,13.2,5.7c3,3.7,4,8,3.6,12.7c-0.2,1.8-0.5,3.6-1.1,5.3c-2,5.7-6.3,9-12.2,9.3
	C24.6,116,17.2,115.7,10.1,115.7z M14.8,112.6c5.4,0,10.6,0.3,15.8-0.1c5.5-0.3,8.5-3.2,9.7-8.2c0.8-3.2,0.8-6.3,0.1-9.5
	c-1-4.2-3.6-7-7.7-8.2C31.4,86.2,30,86,28.6,86c-4.3-0.1-8.6,0-13,0c-0.3,0-0.5,0.1-0.8,0.1C14.8,94.9,14.8,103.7,14.8,112.6z"/>
<path class="st0" d="M503.2,116.2c-3.5-0.1-6.9-0.6-10-2.1c-5.6-2.6-8.5-7.1-8.8-13.2c-0.1-2.2,0.1-4.6,0.6-6.8
	c1.2-4.8,4.4-8.1,8.9-10c6.1-2.5,12.4-2.5,18.5-0.1c6.2,2.5,9.5,7.3,9.9,14c0.2,2.9-0.1,5.8-1.4,8.4c-2.4,5.2-6.6,7.9-12,9
	C507,115.9,505.1,116,503.2,116.2z M503.4,113c1.7-0.3,3.7-0.4,5.5-1c5.9-1.7,9.3-7.3,8.7-14.1c-0.6-6.2-3.7-10.3-9.1-11.7
	c-2.1-0.5-4.3-0.6-6.4-0.6c-7.7,0.2-12.4,4.6-13.1,12.3c-0.6,7.1,3,12.6,9.4,14.2C499.9,112.7,501.6,112.8,503.4,113z"/>
<path class="st0" d="M539.4,86.1c-0.4,2.8-0.2,28.2,0.3,29.6c-1.5,0-2.9,0-4.3,0c0.1-1,0.3-1.9,0.3-2.9c0-9.2,0-18.5,0-27.7
	c0-0.8-0.2-1.5-0.3-2.4c2.4,0,5,0,7.2,0c0.4,0.9,0.6,1.7,1.1,2.3c6.5,7.5,13.1,14.9,19.6,22.4c0.2,0.2,0.4,0.5,0.7,0.7
	c0.5,0.3,1,0.3,1-0.5c0-7.8,0-15.7,0-23.5c0-0.4-0.3-0.9-0.4-1.4c1.5,0,3,0,4.3,0c-0.1,1-0.3,2-0.3,3c0,9.2,0,18.3,0,27.5
	c0,0.8,0.2,1.6,0.3,2.5c-1.5,0-3.1,0-4.5,0c-0.4-0.8-0.6-1.7-1.1-2.3c-7.8-8.9-15.6-17.8-23.4-26.7
	C539.7,86.6,539.6,86.4,539.4,86.1z"/>
<path class="st0" d="M427.7,108.5c0-0.8,0-1.2,0-1.6c0-7.3,0-14.6,0-21.8c0-0.8-0.2-1.5-0.3-2.4c1.3,0,2.8,0,4.2,0
	c-0.1,1-0.3,2-0.3,3c0,9.2,0,18.4,0,27.6c0,0.8,0.2,1.5,0.3,2.4c-1.5,0-3.1,0-4.4,0c-0.4-0.9-0.7-1.8-1.2-2.4
	c-7.7-8.8-15.4-17.6-23.2-26.4c-0.2-0.2-0.4-0.4-0.8-0.7c0,0.6,0,1,0,1.4c0,8.6,0,17.1,0,25.7c0,0.8,0.2,1.6,0.3,2.5
	c-1.3,0-2.8,0-4.1,0c0.1-1.2,0.2-2.4,0.2-3.6c0-8.9,0-17.8,0-26.6c0-0.9-0.2-1.9-0.3-2.8c2.4,0,5,0,7.2,0c0.4,0.8,0.5,1.7,1,2.2
	c6.6,7.6,13.2,15.1,19.9,22.6C426.5,107.9,427,108.1,427.7,108.5z"/>
<path class="st0" d="M87.7,112c0,1.3,0,2.8,0,4.1c-1.6-0.1-3.2-0.3-4.8-0.3c-7.9,0-15.8,0-23.7,0c-0.5,0-1,0-1.3,0
	c0.1-1,0.3-1.9,0.3-2.7c0-9.3,0-18.6,0-27.8c0-0.8-0.2-1.5-0.3-2.4c0.3,0,0.7,0,1.1-0.1c7.9,0,15.8,0,23.7,0c1.1,0,2.2-0.1,3.4-0.2
	c0,1.2,0,2.6,0,3.8c-1.4-0.1-2.7-0.3-4.1-0.4c-5.9,0-11.8,0-17.8,0c-0.5,0-1,0-1.5,0c0,3.8,0,7.5,0,11.4c5.5-0.4,11,0.5,16.5-0.6
	c0,1.3,0,2.8,0,4.1c-1.3-0.1-2.6-0.4-3.9-0.4c-3.7-0.1-7.4,0-11.2,0c-0.4,0-0.9,0-1.4,0c0,4.1,0,8.1,0,12.2c0.4,0,0.7,0,1.1,0
	c6.9,0,13.8,0,20.6,0C85.5,112.6,86.6,112.2,87.7,112z"/>
<path class="st0" d="M131.1,112.1c0,1.3,0,2.7,0,3.9c-2.1-0.1-4.1-0.2-6.2-0.2c-7.5,0-15,0-22.4,0c-0.4,0-0.9,0-1.2,0
	c0.1-1.3,0.2-2.6,0.2-3.9c0-8.8,0-17.5,0-26.3c0-0.9-0.2-1.9-0.3-2.9c0.3,0,0.7,0,1.1,0c7.9,0,15.8,0,23.6,0c1.2,0,2.3-0.2,3.5-0.3
	c0,1.3,0,2.8,0,4.1c-0.9-0.2-1.8-0.5-2.7-0.5c-6.7,0-13.4,0-20.1,0c-0.2,0-0.3,0-0.6,0.1c0,3.7,0,7.4,0,11.3
	c5.4-0.3,10.9,0.5,16.4-0.5c0,1.2,0,2.7,0,4c-1.4-0.1-2.9-0.4-4.4-0.4c-3.6-0.1-7.1,0-10.7,0c-0.4,0-0.9,0-1.3,0c0,4.1,0,8.1,0,12.2
	c0.5,0,0.9,0,1.3,0c6.7,0,13.4,0,20,0C128.6,112.6,129.8,112.3,131.1,112.1z"/>
<path class="st0" d="M149.2,100.9c-0.4,2.5-0.2,13.5,0.3,14.8c-1.8,0-3.6,0-5.2,0c0.1-1.1,0.3-2.2,0.3-3.3c0-9,0-17.9,0-26.9
	c0-0.9-0.2-1.8-0.3-2.8c0.2,0,0.5-0.1,0.9-0.1c6.4,0,12.7-0.1,19.1,0c2.2,0,4.4,0.3,6.5,0.9c3.2,0.9,5,3.5,5.1,6.8
	c0,1,0.1,2.1-0.1,3.1c-0.7,4.1-3.1,6.5-7.3,7.1c-1.5,0.2-3,0.3-4.5,0.3c-4.4,0-8.9,0-13.3,0C150.1,100.9,149.7,100.9,149.2,100.9z
	 M149,97.5c0.5,0,0.8,0.1,1.1,0.1c4.7,0,9.4,0,14.1,0c1.1,0,2.2-0.1,3.2-0.3c3-0.6,4.7-3,4.5-6.1c-0.2-3-1.8-4.8-5.1-4.9
	c-5.7-0.2-11.3-0.2-17-0.2c-0.7,0-0.9,0.3-0.9,0.9c0,2.2,0,4.3,0,6.5C149,94.8,149,96.1,149,97.5z"/>
<path class="st0" d="M364.2,82.7c1.9,0,4,0,6,0c0.2,0.8,0.2,1.7,0.5,2.4c4.4,9.3,8.9,18.5,13.4,27.7c0.5,1,1,1.9,1.5,2.9
	c-1.8,0-3.6,0-5.2,0c-0.3-1-0.4-2-0.8-2.9c-0.8-1.8-1.7-3.5-2.5-5.3c-0.3-0.7-0.7-0.8-1.4-0.8c-5.7,0-11.4,0-17.2,0
	c-0.7,0-1.1,0.2-1.3,0.9c-0.8,2-1.7,4-2.6,6.1c-0.3,0.6-0.3,1.4-0.4,2.1c-1.4,0-3,0-4.6,0c4.5-10.1,9.1-20.2,13.6-30.3
	C363.8,84.6,363.9,83.7,364.2,82.7z M359.4,103.4c5.3,0,10.4,0,15.7,0c-2.7-5.7-5.4-11.3-8.2-17.1
	C364.3,92.2,361.9,97.8,359.4,103.4z"/>
<path class="st0" d="M339,86c-0.9,1.5-1.8,3.1-2.7,4.6c-0.9-0.8-1.7-1.7-2.8-2.3c-5.3-2.8-10.9-3.6-16.7-1.6
	c-4.6,1.5-7.7,4.7-8.7,9.5c-1,5.1,0.7,9.4,4.7,12.7c6.1,5,15,5.2,21.2,0.5c1.1-0.9,2.3-1.8,2.5-3.5c1.3,1.7,2.5,3.2,3.6,4.6
	c-0.7,0.4-1.5,0.6-2.1,1c-3.6,2.8-7.8,4.2-12.3,4.4c-4.2,0.2-8.2-0.2-12.1-1.9c-8.6-3.9-12.5-14.2-8.4-22.1c2.7-5.2,7.2-7.9,12.8-9
	c6.2-1.3,12.2-0.3,18,2.1C336.9,85.4,337.9,85.7,339,86z"/>
<path class="st0" d="M459.9,98.6c1.9-2.6,3.8-5,5.7-7.5c1.5-2,3.1-4.1,4.6-6.1c0.4-0.6,0.5-1.3,0.8-2.2c1.6,0,3.5,0,5.4,0
	c-4.6,6.1-9.2,12.1-13.7,18.3c-0.5,0.6-0.7,1.5-0.8,2.3c-0.1,3.4-0.1,6.7,0,10.1c0,0.8,0.2,1.6,0.3,2.4c-1.6,0-3.4,0-5,0
	c0.1-0.9,0.2-1.9,0.2-2.8c0-3.4,0-6.7,0-10.1c0-0.5-0.1-1.1-0.4-1.4c-4.1-5.6-8.2-11.2-12.4-16.8c-0.4-0.6-1-1.2-1.6-1.9
	c2.2,0,4.3,0,6.5,0c-0.7,1-0.2,1.7,0.4,2.5c3,4.1,6,8.2,9,12.3C459.3,97.9,459.6,98.2,459.9,98.6z"/>
<path class="st0" d="M370.2,135.5c-0.4,2.7-1.6,4.6-3.3,6.3c-4.4,4.6-10,7.2-16.2,8.4c-3.1,0.6-6.1,0.6-9.1-0.5
	c-4-1.4-5.1-4.2-2.9-7.9c2.6-4.3,6.5-7.1,11.1-9c2.2-0.9,4.7-1.3,7-2c0.7-0.2,1.5-0.4,2.2-0.7c2.6-1.1,8,0,9.8,2.2
	C369.5,133.3,369.8,134.5,370.2,135.5z M346.9,149c6.9-0.6,12.7-3.5,17.1-8.9c1.1-1.3,1.8-3,2.4-4.6c0.6-1.8-0.9-3.6-2.8-3.7
	c-0.3,0-0.7,0.2-0.8,0.4c-0.6,1.1-2.4,1.8-3.3,1.1c-1.6-1.2-3.2-0.9-4.7-0.3c-4.1,1.5-7.5,3.9-10.3,7.3c-0.9,1.1-1.6,2.4-2.1,3.7
	c-1,2.7,0.6,4.9,3.5,5.1C346.2,149,346.5,149,346.9,149z"/>
<path class="st0" d="M543.9,150.1c1.3-0.9,2.6-1.7,4.3-1.4c1,0.2,2.1,0.2,3.1,0c1.6-0.3,1.9-1.1,0.8-2.4c-0.6-0.7-1.4-1.3-2.1-2
	c-3-2.6-2.9-4,0.3-6.2c3.5-2.4,7.4-3.2,11.5-2.8c0.6,0.1,1.2,0.4,1.8,0.6c0,0.2,0,0.3,0,0.5c-0.5,0.1-1,0.3-1.4,0.4
	c-2.5,0.5-5,0.9-7.5,1.5c-0.5,0.1-1,0.4-1.4,0.7c-2.1,1.2-2.2,2.6-0.4,4.2c0.7,0.6,1.4,1.2,2.1,1.8c2.1,2.1,1.8,3.5-1,4.5
	c-2.5,0.9-5,1.8-7.8,1.7c-0.8-0.1-1.5-0.4-2.3-0.6C543.9,150.4,543.9,150.3,543.9,150.1z"/>
</svg>
