<?xml version="1.0" encoding="utf-8"?>
<!-- Generator: Adobe Illustrator 15.0.0, SVG Export Plug-In . SVG Version: 6.00 Build 0)  -->
<!DOCTYPE svg PUBLIC "-//W3C//DTD SVG 1.1//EN" "http://www.w3.org/Graphics/SVG/1.1/DTD/svg11.dtd">
<svg version="1.1" id="Layer_1" xmlns="http://www.w3.org/2000/svg" xmlns:xlink="http://www.w3.org/1999/xlink" x="0px" y="0px"
	 width="125.75px" height="47.5px" viewBox="0 0 125.75 47.5" enable-background="new 0 0 125.75 47.5" xml:space="preserve">
<g>
	<path fill="#FFFFFF" d="M42.989,17.824c0,0.442,0.088,0.827,0.265,1.154c0.176,0.327,0.407,0.597,0.696,0.81
		s0.613,0.372,0.976,0.479c0.36,0.105,0.731,0.159,1.11,0.159c0.388,0,0.74-0.046,1.059-0.139s0.594-0.214,0.826-0.365
		s0.424-0.323,0.575-0.517c0.151-0.192,0.256-0.39,0.315-0.591h0.969c-0.086,0.302-0.23,0.583-0.433,0.843s-0.463,0.488-0.78,0.685
		c-0.319,0.195-0.689,0.35-1.11,0.462c-0.423,0.111-0.896,0.168-1.421,0.168c-0.611,0-1.162-0.072-1.653-0.214
		c-0.489-0.144-0.91-0.351-1.259-0.622c-0.348-0.271-0.617-0.602-0.807-0.99s-0.283-0.832-0.283-1.33
		c0-0.381,0.09-0.752,0.271-1.113c0.181-0.359,0.441-0.679,0.781-0.956c0.34-0.276,0.757-0.5,1.252-0.668s1.058-0.251,1.685-0.251
		c0.534,0,1.01,0.046,1.428,0.139c0.418,0.092,0.781,0.22,1.091,0.382s0.567,0.354,0.774,0.579c0.207,0.224,0.371,0.47,0.491,0.738
		h-1.008c-0.231-0.437-0.574-0.761-1.026-0.974c-0.451-0.213-1.035-0.319-1.75-0.319c-0.447,0-0.855,0.066-1.226,0.197
		c-0.37,0.132-0.688,0.312-0.956,0.537c-0.268,0.227-0.475,0.489-0.626,0.785C43.063,17.189,42.989,17.5,42.989,17.824"/>
	<path fill="#FFFFFF" d="M59.491,17.908c0,0.448-0.09,0.858-0.266,1.23c-0.177,0.372-0.437,0.691-0.781,0.961
		c-0.344,0.269-0.764,0.478-1.258,0.629c-0.496,0.15-1.065,0.227-1.711,0.227c-0.638,0-1.207-0.076-1.705-0.227
		c-0.5-0.151-0.92-0.36-1.259-0.629c-0.341-0.27-0.599-0.589-0.774-0.961c-0.178-0.372-0.266-0.782-0.266-1.23
		c0-0.447,0.088-0.856,0.266-1.229c0.176-0.372,0.434-0.692,0.774-0.96c0.339-0.27,0.759-0.479,1.259-0.631
		c0.498-0.15,1.067-0.227,1.705-0.227c0.646,0,1.215,0.076,1.711,0.227c0.494,0.151,0.914,0.361,1.258,0.631
		c0.345,0.268,0.604,0.588,0.781,0.96C59.401,17.052,59.491,17.461,59.491,17.908 M58.535,17.908c0-0.392-0.08-0.743-0.239-1.053
		c-0.159-0.312-0.376-0.572-0.652-0.785c-0.274-0.213-0.598-0.376-0.968-0.491s-0.771-0.172-1.2-0.172
		c-0.432,0-0.832,0.057-1.201,0.172c-0.371,0.115-0.693,0.278-0.969,0.491s-0.49,0.474-0.646,0.785
		c-0.155,0.31-0.232,0.661-0.232,1.053c0,0.393,0.077,0.743,0.232,1.054s0.37,0.572,0.646,0.784
		c0.275,0.213,0.598,0.377,0.969,0.491c0.369,0.115,0.77,0.173,1.201,0.173c0.43,0,0.83-0.058,1.2-0.173
		c0.37-0.114,0.693-0.278,0.968-0.491c0.276-0.212,0.493-0.474,0.652-0.784S58.535,18.301,58.535,17.908"/>
	<polygon fill="#FFFFFF" points="62.447,14.996 66.992,20.015 66.992,14.996 67.948,14.996 67.948,20.804 66.669,20.804 
		62.124,15.785 62.124,20.804 61.169,20.804 61.169,14.996 	"/>
	<polygon fill="#FFFFFF" points="75.437,14.996 75.437,15.558 70.569,15.558 70.569,17.522 74.804,17.522 74.804,18.085 
		70.569,18.085 70.569,20.804 69.614,20.804 69.614,14.996 	"/>
	<polygon fill="#FFFFFF" points="78.045,14.996 78.045,20.242 82.539,20.242 82.539,20.804 77.09,20.804 77.09,14.996 	"/>
	<path fill="#FFFFFF" d="M85.146,14.996v3.912c0,0.233,0.067,0.446,0.2,0.638c0.134,0.189,0.308,0.349,0.523,0.478
		c0.215,0.13,0.459,0.229,0.729,0.299c0.271,0.069,0.544,0.104,0.82,0.104c0.292,0,0.585-0.032,0.878-0.097
		c0.292-0.064,0.555-0.159,0.787-0.285s0.42-0.283,0.562-0.47c0.143-0.188,0.213-0.404,0.213-0.651v-3.928h0.956v3.886
		c0,0.336-0.102,0.634-0.304,0.894c-0.202,0.261-0.465,0.479-0.788,0.655c-0.322,0.176-0.684,0.312-1.084,0.403
		s-0.803,0.138-1.208,0.138c-0.387,0-0.772-0.045-1.155-0.134s-0.729-0.222-1.04-0.399c-0.309-0.176-0.561-0.395-0.755-0.658
		c-0.193-0.263-0.29-0.567-0.29-0.914v-3.87H85.146z"/>
	<polygon fill="#FFFFFF" points="98.446,14.996 98.446,15.558 93.437,15.558 93.437,17.522 98.149,17.522 98.149,18.085 
		93.437,18.085 93.437,20.242 98.666,20.242 98.666,20.804 92.481,20.804 92.481,14.996 	"/>
	<polygon fill="#FFFFFF" points="101.609,14.996 106.154,20.015 106.154,14.996 107.11,14.996 107.11,20.804 105.831,20.804 
		101.286,15.785 101.286,20.804 100.331,20.804 100.331,14.996 	"/>
	<path fill="#FFFFFF" d="M109.744,17.824c0,0.442,0.088,0.827,0.265,1.154s0.408,0.597,0.697,0.81
		c0.288,0.213,0.613,0.372,0.975,0.479c0.361,0.105,0.731,0.159,1.11,0.159c0.388,0,0.74-0.046,1.06-0.139
		c0.317-0.093,0.594-0.214,0.825-0.365c0.233-0.151,0.425-0.323,0.575-0.517c0.151-0.192,0.256-0.39,0.316-0.591h0.969
		c-0.086,0.302-0.231,0.583-0.433,0.843c-0.202,0.26-0.463,0.488-0.781,0.685c-0.319,0.195-0.689,0.35-1.11,0.462
		c-0.422,0.111-0.896,0.168-1.421,0.168c-0.611,0-1.162-0.072-1.653-0.214c-0.489-0.144-0.909-0.351-1.259-0.622
		c-0.348-0.271-0.617-0.602-0.806-0.99c-0.19-0.389-0.284-0.832-0.284-1.33c0-0.381,0.09-0.752,0.271-1.113
		c0.18-0.359,0.44-0.679,0.78-0.956c0.34-0.276,0.758-0.5,1.252-0.668c0.495-0.168,1.058-0.251,1.686-0.251
		c0.534,0,1.009,0.046,1.427,0.139c0.418,0.092,0.781,0.22,1.091,0.382c0.311,0.162,0.568,0.354,0.775,0.579
		c0.207,0.224,0.37,0.47,0.491,0.738h-1.009c-0.231-0.437-0.573-0.761-1.025-0.974s-1.035-0.319-1.75-0.319
		c-0.447,0-0.856,0.066-1.227,0.197c-0.369,0.132-0.688,0.312-0.956,0.537c-0.267,0.227-0.475,0.489-0.626,0.785
		C109.819,17.189,109.744,17.5,109.744,17.824"/>
	<polygon fill="#FFFFFF" points="124.18,14.996 124.18,15.558 119.17,15.558 119.17,17.522 123.883,17.522 123.883,18.085 
		119.17,18.085 119.17,20.242 124.399,20.242 124.399,20.804 118.215,20.804 118.215,14.996 	"/>
</g>
<g>
	<polygon fill="#FFFFFF" points="57.894,25.707 57.894,26.365 52.897,26.365 52.897,28.661 57.245,28.661 57.245,29.319 
		52.897,29.319 52.897,32.5 51.916,32.5 51.916,25.707 	"/>
	<polygon fill="#FFFFFF" points="63.354,25.707 63.354,31.842 67.968,31.842 67.968,32.5 62.374,32.5 62.374,25.707 	"/>
	<polygon fill="#FFFFFF" points="74.039,29.133 76.663,25.707 77.79,25.707 74.503,29.771 74.503,32.5 73.522,32.5 73.522,29.771 
		70.235,25.707 71.36,25.707 	"/>
	<path fill="#FFFFFF" d="M82.747,30.379c0.027,0.242,0.102,0.466,0.225,0.672c0.125,0.207,0.293,0.384,0.504,0.531
		c0.213,0.147,0.463,0.261,0.75,0.343s0.603,0.123,0.947,0.123c0.301,0,0.592-0.024,0.875-0.073c0.282-0.05,0.53-0.129,0.742-0.235
		c0.212-0.108,0.382-0.249,0.51-0.422c0.129-0.174,0.192-0.385,0.192-0.634c0-0.202-0.068-0.374-0.205-0.516
		c-0.137-0.141-0.317-0.262-0.544-0.362c-0.225-0.103-0.48-0.19-0.768-0.266s-0.577-0.146-0.869-0.211
		c-0.371-0.079-0.74-0.169-1.105-0.27c-0.367-0.102-0.699-0.229-0.996-0.384c-0.295-0.153-0.535-0.344-0.722-0.568
		c-0.185-0.227-0.278-0.509-0.278-0.85c0-0.281,0.075-0.529,0.226-0.746c0.149-0.216,0.36-0.397,0.63-0.545
		c0.27-0.146,0.59-0.259,0.961-0.334c0.371-0.074,0.782-0.112,1.232-0.112c0.592,0,1.086,0.063,1.484,0.191
		c0.398,0.127,0.716,0.289,0.954,0.486c0.239,0.196,0.413,0.414,0.524,0.652c0.109,0.238,0.174,0.47,0.191,0.691h-1.007
		c-0.027-0.222-0.1-0.42-0.219-0.594c-0.119-0.173-0.276-0.319-0.47-0.437c-0.195-0.117-0.416-0.205-0.664-0.265
		c-0.248-0.059-0.512-0.089-0.795-0.089c-0.256,0-0.508,0.02-0.756,0.059c-0.246,0.039-0.469,0.104-0.662,0.192
		c-0.194,0.088-0.352,0.201-0.471,0.338c-0.119,0.138-0.179,0.309-0.179,0.511c0,0.209,0.067,0.387,0.205,0.53
		c0.137,0.145,0.317,0.269,0.543,0.373s0.483,0.195,0.776,0.271c0.291,0.074,0.592,0.148,0.9,0.221
		c0.371,0.085,0.74,0.176,1.107,0.273c0.367,0.1,0.693,0.224,0.98,0.373c0.287,0.151,0.521,0.336,0.703,0.556
		c0.181,0.219,0.271,0.496,0.271,0.829c0,0.334-0.081,0.625-0.245,0.874s-0.394,0.458-0.689,0.628s-0.645,0.298-1.047,0.383
		c-0.403,0.085-0.842,0.128-1.319,0.128c-0.433,0-0.853-0.054-1.259-0.162c-0.407-0.108-0.769-0.262-1.087-0.462
		c-0.318-0.199-0.576-0.443-0.775-0.731s-0.304-0.608-0.312-0.962H82.747z"/>
	<polygon fill="#FFFFFF" points="93.947,25.707 93.947,28.661 98.932,28.661 98.932,25.707 99.913,25.707 99.913,32.5 98.932,32.5 
		98.932,29.3 93.947,29.3 93.947,32.5 92.967,32.5 92.967,25.707 	"/>
	<path fill="#FFFFFF" d="M117.157,25.707h3.473c0.451,0,0.848,0.058,1.193,0.171c0.345,0.115,0.634,0.265,0.867,0.447
		c0.234,0.183,0.411,0.391,0.531,0.623c0.119,0.233,0.178,0.463,0.178,0.693c0,0.248-0.062,0.488-0.185,0.721
		c-0.124,0.231-0.303,0.439-0.537,0.623c-0.233,0.184-0.523,0.329-0.868,0.437c-0.345,0.108-0.737,0.162-1.18,0.162h-2.492v2.915
		h-0.98V25.707z M118.138,28.946h2.492c0.239,0,0.466-0.034,0.683-0.104c0.217-0.068,0.406-0.161,0.57-0.279
		c0.163-0.117,0.293-0.257,0.391-0.417s0.146-0.332,0.146-0.516c0-0.183-0.046-0.352-0.139-0.506
		c-0.093-0.153-0.219-0.286-0.377-0.396c-0.16-0.112-0.348-0.2-0.564-0.266c-0.216-0.065-0.453-0.099-0.709-0.099h-2.492V28.946z"/>
	<path fill="#FFFFFF" d="M108.535,22.673c-3.224,0-5.838,2.613-5.838,5.838c0,3.224,2.614,5.837,5.838,5.837
		s5.837-2.613,5.837-5.837C114.372,25.286,111.759,22.673,108.535,22.673 M110.947,33.34c-0.44,0.214-0.971,0.03-1.186-0.409
		c-0.215-0.441-0.031-0.973,0.409-1.187c0.021-0.01,0.04-0.014,0.061-0.021c-0.254-0.812-0.766-1.481-1.403-1.841
		c-0.595,0.178-1.247-0.093-1.527-0.668c-0.085-0.175-0.124-0.358-0.127-0.54c-0.666-0.779-1.416-2.357-1.231-3.179
		c-0.093-0.078-0.173-0.175-0.229-0.291c-0.215-0.439-0.03-0.971,0.409-1.185c0.441-0.215,0.971-0.031,1.187,0.409
		c0.214,0.439,0.03,0.971-0.41,1.186c-0.02,0.009-0.04,0.015-0.061,0.022c0.238,0.762,0.705,1.395,1.289,1.768
		c0.586-0.158,1.22,0.115,1.494,0.681c0.068,0.14,0.104,0.285,0.119,0.433c0.698,0.694,1.586,2.459,1.387,3.345
		c0.094,0.078,0.173,0.175,0.229,0.291C111.571,32.595,111.388,33.126,110.947,33.34"/>
</g>
<g>
	<path fill="#FFFFFF" d="M33.5,30.204c-0.124,0.028-0.389,0.23-0.6,0.243c-0.21,0.013-2.478-0.159-2.656-0.146
		c-0.178,0.012-0.818,0.105-1.01,0.146c-0.319,0.013-0.886-0.438-1-0.359l-0.032,0.391h-0.328h-0.729h-2.887l0.026-0.274
		c0,0-1.393,0.281-1.91,0.274c0,0-3.43-0.076-4.349-0.137c-0.917-0.061-4.399,0.193-4.935,0.22c0,0-1.154-0.139-1.35-0.316
		l-0.062,0.521l-6.493,0.008l0.216,0.505l6.298,0.001l0.026,0.479c0,0,0.688-0.204,1.326-0.204c0,0,4.005,0.204,4.961,0.204
		c0,0,3.673-0.218,4.349-0.218s1.328,0.172,1.922,0.3l-0.026-0.243l1.561,0.122v0.121h0.873v-0.134l1.542-0.211v0.345
		c0.028,0.015,0.821-0.338,1-0.312c0,0,0.939,0.121,1.138,0.115c0.197-0.007,2.548-0.185,2.707-0.128
		c0.159,0.058,0.179,0.12,0.365,0.155c0.21-0.443,0.398-0.91,0.494-1.19c-0.102-0.118-0.24-0.237-0.407-0.276"/>
	<path fill="#FFFFFF" d="M26.326,31.736c-1.033,0-1.871,0.838-1.871,1.871s0.838,1.87,1.871,1.87c1.032,0,1.871-0.837,1.871-1.87
		S27.358,31.736,26.326,31.736 M27.099,35.155c-0.141,0.068-0.311,0.01-0.38-0.131c-0.068-0.143-0.01-0.312,0.132-0.381
		c0.006-0.003,0.013-0.005,0.02-0.007c-0.082-0.261-0.246-0.475-0.45-0.59c-0.19,0.058-0.4-0.03-0.489-0.214
		c-0.027-0.057-0.04-0.115-0.041-0.173c-0.214-0.25-0.454-0.756-0.394-1.02c-0.031-0.024-0.057-0.056-0.074-0.093
		c-0.069-0.142-0.01-0.312,0.131-0.38c0.142-0.068,0.311-0.011,0.381,0.131c0.067,0.142,0.009,0.312-0.132,0.38
		c-0.006,0.003-0.014,0.005-0.02,0.008c0.076,0.243,0.227,0.446,0.413,0.566c0.188-0.051,0.391,0.036,0.479,0.218
		c0.021,0.046,0.032,0.092,0.038,0.139c0.223,0.223,0.508,0.788,0.443,1.072c0.031,0.025,0.056,0.056,0.074,0.094
		C27.3,34.916,27.24,35.086,27.099,35.155"/>
	<path fill="#FFFFFF" d="M36.76,7.699l0.257-0.301l-4.629-3.945l-2.04,1.448l-0.453-0.765l-2.457,1.803l-4.744-4.244l-3.816,3.244
		l-0.682-0.655l-4.297,3.813l-4.71-3.874L8.731,4.995L7.167,3.79L1.619,7.643v0.206c0,0.001,0,2.506,0.046,5.57
		c0.01,0.685,0.065,1.85,0.125,2.919c0.029,0.536,0.06,1.045,0.086,1.458c0.026,0.414,0.048,0.728,0.061,0.878
		c0.744,8.668,3.595,14.858,6.779,19.16c3.186,4.305,6.702,6.722,8.777,7.881c0.619,0.345,1.31,0.519,1.999,0.519
		c0.658,0,1.316-0.157,1.914-0.475c2.075-1.102,5.584-3.414,8.765-7.658c3.181-4.242,6.026-10.418,6.781-19.205l-0.395-0.033
		l0.392,0.058c0.049-0.337,0.087-0.795,0.116-1.343c0.091-1.642,0.113-4.088,0.113-6.139c0-2.075-0.023-3.743-0.023-3.744
		l-0.002-0.18l-0.137-0.116L36.76,7.699l-0.396,0.006c0,0.001,0.003,0.104,0.004,0.292c0.006,0.564,0.02,1.89,0.02,3.441
		c0,1.363-0.011,2.902-0.043,4.254c-0.017,0.676-0.039,1.305-0.068,1.841c-0.029,0.535-0.067,0.979-0.11,1.271l-0.002,0.012
		l-0.001,0.011c-0.745,8.65-3.531,14.669-6.626,18.8c-3.094,4.13-6.504,6.373-8.501,7.434c-0.48,0.254-1.011,0.381-1.544,0.381
		c-0.557,0-1.114-0.14-1.613-0.418c-2-1.117-5.423-3.466-8.527-7.659c-3.103-4.194-5.893-10.23-6.627-18.759
		c-0.012-0.135-0.034-0.449-0.06-0.859c-0.038-0.616-0.087-1.452-0.128-2.259c-0.04-0.807-0.074-1.586-0.081-2.081
		c-0.023-1.528-0.034-2.918-0.04-3.926C2.413,8.977,2.411,8.569,2.411,8.287C2.41,8.004,2.41,7.85,2.41,7.849H2.015L2.24,8.174
		L7.144,4.77l1.812,1.397L9.398,5.42l4.519,3.717l4.257-3.776l0.67,0.646l3.836-3.261l4.709,4.212l2.271-1.667l0.446,0.753
		l2.237-1.589l4.161,3.546L36.76,7.699l-0.396,0.006L36.76,7.699z"/>
	<path fill="#FFFFFF" d="M18.402,18.922c0.127-0.104-0.521-0.522-0.521-0.522l0.431-0.154l0.633,0.475c0,0,1.494-0.223,1.803-0.417
		c0.156-0.097-0.586-0.591-0.586-0.591l0.44-0.169l0.762,0.591l3.627,0.02c0.103,0.003,0.508,0.059,0.64,0.086
		c1.178,0.247,1.688,0.831,2.014,1.402c0.258,0.433,0.366,1.109,0.185,1.539c-0.201,0.86-1.212,1.481-2.333,1.987
		c-0.291,0.147-0.913,0.593-1.456,0.811c-0.017,0.006-0.017,0.006-0.032,0.012c0.016-0.003,0.016-0.001,0.032-0.005
		c0.579-0.136,1.556-0.487,1.648-0.52c1.113-0.369,2.132-0.873,2.686-2.11c0.179-0.563,0.143-1.096-0.043-1.678
		c-0.392-0.883-1.32-1.745-2.516-1.993c-0.146-0.029-0.618-0.091-0.739-0.095l-2.978-0.047c0,0,2.933-0.591,4.312-1.293
		c1.379-0.704,4.714-3.266,4.693-3.996l-1.878,1.35L29.52,12.9c0,0-0.821,0.76-0.821,0.646c0-0.111,0.381-1.237,0.381-1.237
		s-2.816,4.643-7.305,4.812c0,0,2.288-1.406,1.497-1.098c-0.792,0.31-1.232,0.282-1.232,0.282l2.083-1.463l-1.555,0.646l0.322-0.562
		c0,0-5.104,3.376-5.984,3.264c-0.409,0.005-1.202-0.028-1.643,0.226c-0.439,0.253,1.027-1.21-1.026-1.154
		c0,0,2.177-1.286,2.287-1.323c0.345-0.106,1.009-0.119,1.203,0.198c0.114,0.185,0.131,0.46-0.117,0.703
		c-0.302,0.296-0.556,0.635-0.646,0.729c-0.005,0.005,0.003,0.014,0.01,0.01l7.647-4.201h-0.967c0,0,1.861-1.011,2.594-2.08
		c0,0-3.211,1.855-3.416,1.659c0,0,5.007-2.815,4.743-3.436c-0.146-0.025-0.812,0.847-5.212,1.747
		c-4.4,0.899-11.058,5.111-12.145,8.048c0,0,0.82-0.338,0.733,0.31c-0.038,0.279,1.714-1.397,1.965-1.492
		c0.438-0.162,1.057,0.619,0.763,0.957c-0.293,0.339-3.168,1.317-3.168,1.317S9.865,19.4,9.162,20.694c0,0-1.027-0.534-1.291-0.478
		c-0.264,0.056-0.234,0.169-0.147,0.281c0.088,0.112,1.115,0.873,1.614,0.704c0.199-0.068,0.469,0.506,1.203,0.28
		c0.137-0.042,1.423,0.85,2.492,1.576c1.175,0.799,2.787,1.464,2.787,1.464s-2.142-1.183-2.406-1.802c0,0,3.806,1.903,5.4,1.987
		c0,0-2.672-1.058-3.229-1.564c0,0,5.867,1.66,5.808,1.068c0,0-5.034-0.991-4.811-1.575c0,0,7.421,0.703,7.392,0.226
		c0,0-6.453-0.507-6.336-0.985c0,0,6.864,0.028,6.836-0.395c0,0-6.513,0.113-6.337-0.225c0,0,3.11-0.085,3.11-0.45
		c0,0-3.11,0.365-3.081,0c0,0,5.515-0.676,5.486-1.041c0,0-5.281,0.647-5.281,0.365c0,0,4.548-0.956,4.518-1.237l-6.424,0.675"/>
</g>
<rect x="-336" y="-191.5" fill="none" width="612" height="396"/>
</svg>
