<?xml version="1.0" encoding="utf-8"?>
<!-- Generator: Adobe Illustrator 15.0.0, SVG Export Plug-In . SVG Version: 6.00 Build 0)  -->
<!DOCTYPE svg PUBLIC "-//W3C//DTD SVG 1.1//EN" "http://www.w3.org/Graphics/SVG/1.1/DTD/svg11.dtd">
<svg version="1.1" id="Layer_1" xmlns="http://www.w3.org/2000/svg" xmlns:xlink="http://www.w3.org/1999/xlink" x="0px" y="0px"
	 width="511.009px" height="623.5px" viewBox="0 0 511.009 623.5" enable-background="new 0 0 511.009 623.5" xml:space="preserve">
<g>
	
		<image overflow="visible" opacity="0.51" width="510" height="631" xlink:href="1229FE78.png"  transform="matrix(1 0 0 1 -2.9912 -8.5)">
	</image>
	<g>
		<g>
			<polygon fill="#FFFFFF" points="119.65,417.586 119.65,420.422 98.077,420.422 98.077,430.337 116.846,430.337 116.846,433.177 
				98.077,433.177 98.077,446.908 93.843,446.908 93.843,417.586 			"/>
			<path fill="#FFFFFF" d="M226.943,437.751c0.116,1.053,0.438,2.014,0.973,2.905c0.534,0.895,1.26,1.652,2.173,2.293
				c0.918,0.63,1.997,1.128,3.237,1.478c1.233,0.354,2.6,0.532,4.088,0.532c1.299,0,2.556-0.108,3.781-0.315
				c1.219-0.217,2.288-0.552,3.2-1.023c0.918-0.463,1.65-1.073,2.204-1.816c0.555-0.744,0.832-1.659,0.832-2.731
				c0-0.876-0.298-1.62-0.889-2.227c-0.589-0.609-1.377-1.132-2.349-1.569c-0.973-0.435-2.078-0.817-3.316-1.146
				c-1.24-0.32-2.491-0.62-3.746-0.906c-1.603-0.345-3.197-0.729-4.78-1.161c-1.583-0.442-3.013-0.994-4.295-1.654
				c-1.275-0.669-2.313-1.486-3.113-2.462c-0.803-0.975-1.207-2.195-1.207-3.662c0-1.216,0.328-2.294,0.975-3.226
				c0.649-0.931,1.555-1.714,2.72-2.348c1.161-0.641,2.547-1.123,4.149-1.443c1.598-0.329,3.373-0.486,5.319-0.486
				c2.556,0,4.692,0.274,6.413,0.827c1.712,0.552,3.089,1.25,4.119,2.098c1.029,0.847,1.779,1.786,2.258,2.815
				c0.479,1.033,0.758,2.027,0.83,2.992h-4.349c-0.116-0.965-0.428-1.815-0.942-2.568c-0.516-0.748-1.194-1.379-2.032-1.887
				c-0.841-0.507-1.797-0.886-2.865-1.142c-1.069-0.252-2.213-0.38-3.432-0.38c-1.105,0-2.193,0.079-3.261,0.251
				c-1.071,0.173-2.022,0.443-2.861,0.828c-0.842,0.384-1.516,0.865-2.031,1.461c-0.519,0.597-0.775,1.329-0.775,2.206
				c0,0.9,0.295,1.664,0.885,2.284c0.596,0.621,1.376,1.162,2.349,1.608c0.974,0.453,2.087,0.844,3.348,1.168
				c1.255,0.325,2.557,0.645,3.891,0.954c1.605,0.369,3.193,0.765,4.775,1.188c1.583,0.423,2.994,0.959,4.233,1.608
				c1.24,0.65,2.255,1.447,3.035,2.394c0.779,0.945,1.175,2.142,1.175,3.584s-0.353,2.697-1.06,3.771
				c-0.705,1.073-1.697,1.976-2.974,2.712c-1.28,0.733-2.789,1.285-4.522,1.649c-1.74,0.364-3.635,0.551-5.696,0.551
				c-1.866,0-3.683-0.23-5.435-0.698c-1.755-0.463-3.318-1.133-4.694-1.988c-1.371-0.866-2.491-1.91-3.347-3.16
				c-0.857-1.24-1.305-2.625-1.347-4.155h4.355V437.751z"/>
			<polygon fill="#FFFFFF" points="275.296,417.586 275.296,430.337 296.81,430.337 296.81,417.586 301.049,417.586 
				301.049,446.908 296.81,446.908 296.81,433.094 275.296,433.094 275.296,446.908 271.062,446.908 271.062,417.586 			"/>
			<path fill="#FFFFFF" d="M375.496,417.586h14.989c1.949,0,3.668,0.246,5.156,0.739c1.484,0.491,2.735,1.142,3.744,1.929
				c1.016,0.788,1.772,1.684,2.285,2.688c0.517,1.004,0.777,1.999,0.777,2.986c0,1.079-0.271,2.112-0.798,3.117
				c-0.541,1.004-1.314,1.9-2.323,2.693c-1.015,0.792-2.255,1.412-3.751,1.885c-1.487,0.463-3.181,0.699-5.091,0.699h-10.758v12.584
				h-4.232L375.496,417.586L375.496,417.586z M379.729,431.567h10.756c1.029,0,2.015-0.147,2.955-0.443
				c0.93-0.295,1.752-0.699,2.455-1.211c0.704-0.507,1.267-1.107,1.688-1.802c0.419-0.688,0.625-1.429,0.625-2.222
				c0-0.792-0.196-1.521-0.6-2.181c-0.399-0.669-0.941-1.235-1.632-1.723c-0.684-0.479-1.496-0.857-2.431-1.143
				c-0.937-0.286-1.96-0.424-3.062-0.424h-10.758v11.147H379.729z"/>
			<path fill="#FFFFFF" d="M434.902,383.853c-1.685,0.385-5.238,3.093-8.069,3.266c-2.84,0.172-33.378-2.151-35.785-1.979
				c-2.402,0.179-11.021,1.424-13.607,1.979c-4.293,0.172-11.924-5.878-13.469-4.851l-0.435,5.283h-4.421h-9.807h-38.884
				l0.354-3.698c0,0-18.762,3.781-25.719,3.698c0,0-46.208-1.029-58.574-1.852c-12.364-0.817-59.264,2.623-66.479,2.964
				c0,0-15.557-1.866-18.188-4.259l-0.818,7.011l-87.458,0.108l2.897,6.809l84.83,0.015l0.357,6.436c0,0,9.277-2.752,17.861-2.752
				c0,0,53.947,2.752,66.828,2.752c0,0,49.47-2.925,58.573-2.925c9.104,0,17.904,2.317,25.891,4.036l-0.354-3.264l21.021,1.634v1.63
				h11.767v-1.807l20.756-2.831v4.638c0.403,0.196,11.067-4.554,13.471-4.21c0,0,12.66,1.637,15.324,1.548
				c2.664-0.085,34.324-2.491,36.476-1.72c2.146,0.778,2.408,1.625,4.919,2.092c2.83-5.961,5.36-12.258,6.66-16.019
				c-1.378-1.615-3.239-3.21-5.484-3.732"/>
			<path fill="#FFFFFF" d="M338.272,404.48c-13.924,0-25.203,11.283-25.203,25.207c0,13.911,11.279,25.194,25.203,25.194
				c13.916,0,25.199-11.283,25.199-25.194C363.474,415.765,352.188,404.48,338.272,404.48 M348.688,450.531
				c-1.899,0.926-4.193,0.133-5.119-1.769c-0.926-1.898-0.139-4.188,1.763-5.114c0.088-0.039,0.177-0.061,0.267-0.1
				c-1.094-3.5-3.31-6.39-6.062-7.945c-2.565,0.769-5.381-0.395-6.593-2.881c-0.364-0.757-0.531-1.55-0.547-2.333
				c-2.879-3.361-6.113-10.176-5.32-13.721c-0.404-0.334-0.744-0.753-0.985-1.25c-0.925-1.91-0.138-4.194,1.763-5.126
				c1.901-0.92,4.195-0.132,5.121,1.769s0.137,4.194-1.764,5.119c-0.088,0.04-0.177,0.061-0.266,0.1
				c1.029,3.289,3.043,6.021,5.562,7.632c2.53-0.68,5.268,0.496,6.449,2.934c0.295,0.61,0.452,1.24,0.511,1.871
				c3.019,2.992,6.854,10.619,5.993,14.444c0.403,0.334,0.747,0.753,0.993,1.26C351.377,447.321,350.59,449.605,348.688,450.531"/>
			<path fill="#FFFFFF" d="M71.65,359.769c0,1.911,0.383,3.565,1.145,4.982c0.761,1.413,1.764,2.58,3.011,3.496
				c1.242,0.915,2.646,1.604,4.208,2.067c1.556,0.458,3.156,0.685,4.793,0.685c1.669,0,3.192-0.197,4.568-0.596
				c1.377-0.399,2.565-0.921,3.57-1.576c1.002-0.649,1.829-1.397,2.479-2.23c0.652-0.831,1.105-1.683,1.366-2.555h4.18
				c-0.368,1.306-0.992,2.521-1.866,3.644c-0.872,1.122-1.996,2.107-3.373,2.949c-1.376,0.853-2.974,1.513-4.792,1.999
				c-1.821,0.481-3.867,0.724-6.131,0.724c-2.641,0-5.015-0.311-7.139-0.926c-2.117-0.615-3.926-1.507-5.433-2.684
				c-1.504-1.167-2.668-2.594-3.486-4.273c-0.814-1.678-1.224-3.589-1.224-5.744c0-1.646,0.387-3.244,1.169-4.805
				c0.781-1.557,1.906-2.935,3.373-4.127c1.467-1.196,3.267-2.156,5.411-2.879c2.132-0.725,4.557-1.089,7.27-1.089
				c2.309,0,4.359,0.197,6.159,0.596c1.807,0.404,3.373,0.951,4.713,1.649c1.337,0.704,2.452,1.536,3.343,2.501
				c0.894,0.965,1.597,2.028,2.117,3.189h-4.345c-1.004-1.886-2.481-3.288-4.431-4.203c-1.952-0.916-4.472-1.38-7.557-1.38
				c-1.933,0-3.695,0.285-5.295,0.853c-1.598,0.571-2.974,1.344-4.124,2.319c-1.154,0.979-2.058,2.105-2.708,3.386
				C71.972,357.022,71.65,358.366,71.65,359.769"/>
			<path fill="#FFFFFF" d="M142.89,360.128c0,1.935-0.379,3.708-1.14,5.312c-0.769,1.604-1.891,2.987-3.373,4.146
				c-1.489,1.161-3.303,2.067-5.44,2.718c-2.134,0.654-4.598,0.979-7.387,0.979c-2.747,0-5.201-0.325-7.355-0.979
				c-2.156-0.649-3.965-1.557-5.433-2.718c-1.472-1.157-2.587-2.541-3.348-4.146c-0.761-1.605-1.14-3.378-1.14-5.312
				c0-1.93,0.379-3.696,1.14-5.307c0.761-1.605,1.876-2.988,3.348-4.149c1.467-1.162,3.276-2.068,5.433-2.718
				c2.154-0.65,4.608-0.977,7.355-0.977c2.79,0,5.253,0.325,7.387,0.977c2.137,0.648,3.951,1.556,5.44,2.718
				c1.481,1.161,2.604,2.544,3.373,4.149C142.511,356.432,142.89,358.198,142.89,360.128 M138.764,360.128
				c0-1.688-0.342-3.204-1.034-4.544c-0.684-1.344-1.622-2.471-2.811-3.387c-1.191-0.921-2.582-1.624-4.179-2.127
				c-1.599-0.492-3.329-0.738-5.189-0.738c-1.854,0-3.584,0.246-5.182,0.738c-1.597,0.503-2.989,1.206-4.18,2.127
				c-1.189,0.916-2.116,2.043-2.786,3.387c-0.673,1.34-1.005,2.855-1.005,4.544c0,1.689,0.332,3.206,1.005,4.55
				c0.67,1.339,1.597,2.466,2.786,3.389c1.191,0.92,2.583,1.624,4.18,2.12c1.598,0.492,3.328,0.738,5.182,0.738
				c1.861,0,3.591-0.246,5.189-0.738c1.597-0.496,2.988-1.2,4.179-2.12c1.189-0.923,2.127-2.05,2.811-3.389
				C138.421,363.334,138.764,361.817,138.764,360.128"/>
			<polygon fill="#FFFFFF" points="155.655,347.555 175.276,369.222 175.276,347.555 179.404,347.555 179.404,372.629 
				173.883,372.629 154.264,350.961 154.264,372.629 150.134,372.629 150.134,347.555 			"/>
			<polygon fill="#FFFFFF" points="211.734,347.555 211.734,349.982 190.717,349.982 190.717,358.465 209.001,358.465 
				209.001,360.892 190.717,360.892 190.717,372.629 186.592,372.629 186.592,347.555 			"/>
			<polygon fill="#FFFFFF" points="222.993,347.555 222.993,370.206 242.393,370.206 242.393,372.629 218.87,372.629 
				218.87,347.555 			"/>
			<path fill="#FFFFFF" d="M253.653,347.555v16.893c0,1.009,0.285,1.929,0.867,2.747c0.57,0.827,1.323,1.511,2.254,2.066
				c0.932,0.557,1.979,0.985,3.15,1.29c1.167,0.3,2.344,0.453,3.535,0.453c1.266,0,2.525-0.144,3.791-0.419
				c1.266-0.28,2.4-0.693,3.407-1.229c0.998-0.548,1.807-1.222,2.421-2.033c0.609-0.809,0.916-1.742,0.916-2.808v-16.96h4.126
				v16.777c0,1.453-0.435,2.738-1.31,3.866c-0.877,1.11-2.01,2.062-3.397,2.819c-1.394,0.764-2.953,1.341-4.688,1.737
				c-1.728,0.398-3.459,0.602-5.207,0.602c-1.674,0-3.339-0.197-4.992-0.581c-1.648-0.389-3.15-0.954-4.489-1.719
				c-1.334-0.768-2.418-1.708-3.254-2.85c-0.839-1.133-1.257-2.447-1.257-3.949v-16.704L253.653,347.555L253.653,347.555z"/>
			<polygon fill="#FFFFFF" points="311.065,347.555 311.065,349.982 289.438,349.982 289.438,358.465 309.787,358.465 
				309.787,360.892 289.438,360.892 289.438,370.206 312.013,370.206 312.013,372.629 285.31,372.629 285.31,347.555 			"/>
			<polygon fill="#FFFFFF" points="324.724,347.555 344.347,369.222 344.347,347.555 348.474,347.555 348.474,372.629 
				342.949,372.629 323.335,350.961 323.335,372.629 319.2,372.629 319.2,347.555 			"/>
			<path fill="#FFFFFF" d="M359.845,359.769c0,1.911,0.379,3.565,1.143,4.982c0.759,1.413,1.764,2.58,3.009,3.496
				c1.245,0.915,2.647,1.604,4.209,2.067c1.556,0.458,3.155,0.685,4.796,0.685c1.668,0,3.189-0.197,4.568-0.596
				c1.378-0.399,2.563-0.921,3.567-1.576c1-0.649,1.827-1.397,2.478-2.23c0.65-0.831,1.107-1.683,1.367-2.555h4.182
				c-0.369,1.306-0.989,2.521-1.866,3.644c-0.876,1.122-1.999,2.107-3.372,2.949c-1.374,0.853-2.974,1.513-4.795,1.999
				c-1.816,0.481-3.863,0.724-6.129,0.724c-2.641,0-5.021-0.311-7.141-0.926c-2.115-0.615-3.928-1.507-5.435-2.684
				c-1.507-1.167-2.668-2.594-3.485-4.273c-0.816-1.678-1.221-3.589-1.221-5.744c0-1.646,0.385-3.244,1.172-4.805
				c0.777-1.557,1.899-2.935,3.367-4.127c1.467-1.196,3.27-2.156,5.41-2.879c2.132-0.725,4.559-1.089,7.271-1.089
				c2.309,0,4.361,0.197,6.158,0.596c1.807,0.404,3.372,0.951,4.711,1.649c1.34,0.704,2.451,1.536,3.349,2.501
				c0.886,0.965,1.595,2.028,2.116,3.189h-4.348c-1.004-1.886-2.48-3.288-4.431-4.203c-1.955-0.916-4.476-1.38-7.558-1.38
				c-1.93,0-3.696,0.285-5.297,0.853c-1.596,0.571-2.974,1.344-4.121,2.319c-1.156,0.979-2.058,2.105-2.707,3.386
				C360.165,357.022,359.845,358.366,359.845,359.769"/>
			<polygon fill="#FFFFFF" points="422.161,347.555 422.161,349.982 400.539,349.982 400.539,358.465 420.881,358.465 
				420.881,360.892 400.539,360.892 400.539,370.206 423.111,370.206 423.111,372.629 396.403,372.629 396.403,347.555 			"/>
			<polygon fill="#FFFFFF" points="143.224,417.586 143.224,444.072 163.138,444.072 163.138,446.908 138.99,446.908 
				138.99,417.586 			"/>
			<polygon fill="#FFFFFF" points="189.348,432.375 200.676,417.581 205.541,417.581 191.35,435.127 191.35,446.908 
				187.115,446.908 187.115,435.127 172.925,417.581 177.789,417.581 			"/>
			<path fill="#FFFFFF" d="M231.535,231.882c1.732-1.398-7.008-7.045-7.008-7.045l5.807-2.08l8.53,6.397
				c0,0,20.127-3.005,24.277-5.612c2.099-1.315-7.9-7.96-7.9-7.96l5.928-2.272l10.26,7.958l48.866,0.244
				c1.388,0.049,6.843,0.795,8.615,1.169c15.866,3.338,22.735,11.186,27.137,18.9c3.476,5.817,4.917,14.922,2.472,20.729
				c-2.707,11.587-16.326,19.938-31.43,26.76c-3.914,1.986-12.283,7.985-19.604,10.914c-0.228,0.086-0.228,0.091-0.443,0.173
				c0.227-0.047,0.227-0.015,0.434-0.067c7.817-1.838,20.963-6.58,22.213-6.998c14.985-4.975,28.727-11.762,36.175-28.44
				c2.394-7.577,1.92-14.752-0.591-22.603c-5.248-11.882-17.771-23.49-33.875-26.828c-1.971-0.408-8.336-1.22-9.961-1.28
				l-40.111-0.63c0,0,39.507-7.961,58.082-17.438c18.57-9.479,63.488-43.971,63.222-53.827l-25.289,18.196l3.942-9.475
				c0,0-11.057,10.236-11.057,8.716c0-1.516,5.14-16.674,5.14-16.674s-37.938,62.54-98.388,64.814c0,0,30.818-18.951,20.149-14.781
				c-10.669,4.17-16.596,3.791-16.596,3.791l28.056-19.712l-20.941,8.716l4.343-7.582c0,0-68.749,45.487-80.601,43.971
				c-5.517,0.063-16.204-0.379-22.126,3.035c-5.928,3.407,13.829-16.298-13.834-15.542c0,0,29.314-17.341,30.824-17.816
				c4.637-1.453,13.58-1.607,16.196,2.651c1.534,2.496,1.766,6.201-1.577,9.477c-4.064,3.987-7.486,8.546-8.702,9.832
				c-0.071,0.071,0.025,0.177,0.111,0.133l103.024-56.583h-13.035c0,0,25.072-13.627,34.953-28.029c0,0-43.255,24.994-46.021,22.341
				c0,0,67.437-37.918,63.882-46.258c-1.969-0.342-10.936,11.387-70.203,23.518c-59.272,12.13-148.941,68.859-163.584,108.407
				c0,0,11.065-4.552,9.881,4.169c-0.51,3.757,23.083-18.831,26.471-20.091c5.893-2.195,14.226,8.339,10.275,12.886
				c-3.954,4.546-42.673,17.755-42.673,17.755s-8.692-13.586-18.177,3.852c0,0-13.825-7.205-17.385-6.441
				c-3.555,0.755-3.161,2.272-1.976,3.791c1.184,1.512,15.017,11.747,21.732,9.472c2.688-0.908,6.322,6.826,16.203,3.791
				c1.851-0.571,19.183,11.439,33.585,21.229c15.82,10.747,37.536,19.711,37.536,19.711s-28.844-15.921-32.399-24.263
				c0,0,51.25,25.637,72.737,26.764c0,0-35.99-14.252-43.498-21.078c0,0,79.026,22.363,78.239,14.401
				c0,0-67.821-13.368-64.803-21.224c0,0,99.962,9.477,99.569,3.03c0,0-86.924-6.821-85.347-13.265c0,0,92.461,0.38,92.062-5.307
				c0,0-87.717,1.517-85.342-3.029c0,0,41.881-1.141,41.881-6.063c0,0-41.881,4.923-41.489,0c0,0,74.287-9.1,73.893-14.026
				c0,0-71.125,8.716-71.125,4.926c0,0,61.239-12.886,60.845-16.677l-86.531,9.093"/>
			<path fill="#FFFFFF" d="M478.821,80.711l3.46-4.058l-62.364-53.131L392.45,43.018l-6.119-10.298l-33.083,24.283L289.336-0.17
				l-51.412,43.702l-9.169-8.837L170.872,86.06l-63.438-52.172l-6.162,10.39L80.211,28.046L5.469,79.936v2.787
				c0,0.02,0,33.753,0.625,75.028c0.135,9.235,0.886,24.916,1.678,39.328c0.399,7.201,0.808,14.075,1.16,19.636
				c0.352,5.57,0.645,9.794,0.817,11.82c10.03,116.756,48.412,200.139,91.32,258.099c42.912,57.968,90.265,90.524,118.233,106.136
				c8.337,4.658,17.634,6.991,26.93,6.991c8.854,0,17.726-2.116,25.774-6.39c27.962-14.839,75.216-45.981,118.056-103.149
				c42.841-57.15,81.165-140.332,91.333-258.69l-5.308-0.46l5.272,0.778c0.664-4.542,1.166-10.703,1.58-18.088
				c1.222-22.112,1.521-55.05,1.521-82.683c0-27.958-0.31-50.422-0.31-50.441l-0.041-2.415l-1.831-1.567L478.821,80.711
				l-5.331,0.077c0,0,0.02,1.391,0.054,3.926c0.083,7.614,0.261,25.452,0.261,46.363c0,18.361-0.139,39.092-0.582,57.3
				c-0.227,9.106-0.525,17.581-0.925,24.798c-0.395,7.205-0.896,13.184-1.48,17.121l-0.024,0.162l-0.01,0.16
				c-10.039,116.514-47.573,197.573-89.246,253.214c-41.679,55.631-87.611,85.839-114.531,100.12
				c-6.464,3.432-13.616,5.149-20.772,5.149c-7.516,0-15.022-1.885-21.737-5.638c-26.949-15.044-73.056-46.699-114.858-103.173
				c-41.792-56.492-79.375-137.792-89.265-252.667c-0.158-1.821-0.455-6.06-0.802-11.579c-0.524-8.301-1.18-19.562-1.728-30.43
				c-0.552-10.865-0.995-21.367-1.09-28.025c-0.313-20.592-0.468-39.318-0.544-52.889c-0.04-6.784-0.06-12.28-0.072-16.081
				c-0.005-3.795-0.005-5.888-0.005-5.898h-5.327l3.035,4.382l66.044-45.856L104.3,60.066l5.964-10.053l60.871,50.061l57.325-50.865
				l9.023,8.692l51.673-43.929l63.429,56.738l30.577-22.444l6.021,10.141l30.135-21.394l56.045,47.757L478.821,80.711l-5.331,0.077
				L478.821,80.711z"/>
		</g>
	</g>
</g>
</svg>
